<svg width="410" height="36" viewBox="0 0 410 36" fill="none" xmlns="http://www.w3.org/2000/svg">
<path d="M272.969 1.53392C193.742 3.66368 17.3979 26.665 1.63763 30.0726L1.58115 30.1171C0.499425 30.9686 0.527513 32.6168 1.63763 33.431C1.63763 33.431 90.3639 25.0556 107.98 23.4848C125.595 21.914 208.66 16.8554 208.66 16.8554C174.26 20.7297 110.093 31.1833 109.47 31.2525C108.692 31.3389 104.369 32.2901 103.591 33.8465C102.968 35.0916 104.235 35.668 104.946 35.8006C282.451 18.5956 406.235 8.19747 406.946 7.66476C407.833 6.99888 413.382 3.34452 403.616 3.34452C393.85 3.34452 348.855 4.1877 349.783 3.34452C350.71 2.50134 351.409 2.02054 351.163 1.01448C350.965 0.201151 352.196 -0.595847 272.969 1.53392Z" fill="#82B54E"/>
</svg>
